# xmcd
#
# Track frame offsets:
#	150
#	14789
#	38253
#	47497
#	73281
#	90856
#	101424
#	117994
#	132426
#	155761
#	175379
#	186845
#	213628
#	227758
#	237751
#	252642
#	286084
#	304872
#	322951
#	332691
#
# Disc length: 4590 seconds
#
# Revision: 0
# Processed by: cddbd v1.5.2PL0 Copyright (c) Steve Scherf et al.
# Submitted via: EZCDAudioConverter 2.1.7.1
#
DISCID=1b11ec14
DTITLE=V/A - Delta Swamp Rock V2
DYEAR=1900
DGENRE=
TTITLE0=Area Code 615 - Ruby
TTITLE1=Captain Beyond - Sufficiently Breathless
TTITLE2=Bobbie Gentry - Touch 'Em With Love
TTITLE3=Cowboy - Houston
TTITLE4=Marshall Tucker Band - Fire On The Mountain
TTITLE5=Cher - For What It's Worth
TTITLE6=Bobby Lance - Somewhere In Between
TTITLE7=Tony Joe White - Who's Making Love
TTITLE8=Barefoot Jerry - The Minstrel Is Free At Last
TTITLE9=Gregg Allman - Midnight Rider
TTITLE10=Bobbie Gentry - Something In The Way He Moves
TTITLE11=Area Code 615 - Devil Weed And Me
TTITLE12=Chet Atkins and Jerry Reed - Tennessee Stud
TTITLE13=Joe South - No Fence Around Me
TTITLE14=Cowboy - Road Gravy Chase
TTITLE15=Lynyrd Skynyrd - Free Bird [Muscle Shoals Original Version]
TTITLE16=Grinderswitch - Let The South Wind Blow
TTITLE17=Captain Beyond - Thousand Days Of Yesterdays
TTITLE18=Box Tops - Deep In Kentucky
TTITLE19=Earl Scruggs - Lonesome And A Long Way From Home
EXTD=
EXTT0=
EXTT1=
EXTT2=
EXTT3=
EXTT4=
EXTT5=
EXTT6=
EXTT7=
EXTT8=
EXTT9=
EXTT10=
EXTT11=
EXTT12=
EXTT13=
EXTT14=
EXTT15=
EXTT16=
EXTT17=
EXTT18=
EXTT19=
PLAYORDER=
